<?xml version="1.0" encoding="UTF-8"?>
<svg id="Layer_2" data-name="Layer 2" xmlns="http://www.w3.org/2000/svg" xmlns:xlink="http://www.w3.org/1999/xlink" viewBox="0 0 1268.29 1084.69">
  <defs>
    <style>
      .cls-1 {
        fill: #17213a;
      }

      .cls-2 {
        fill: url(#linear-gradient-3);
      }

      .cls-2, .cls-3, .cls-4, .cls-5, .cls-6 {
        opacity: .76;
      }

      .cls-3 {
        fill: url(#linear-gradient-4);
      }

      .cls-4 {
        fill: url(#linear-gradient-2);
      }

      .cls-5 {
        fill: url(#linear-gradient);
      }

      .cls-6 {
        fill: url(#linear-gradient-5);
      }

      .cls-7 {
        fill: #ca251b;
      }
    </style>
    <linearGradient id="linear-gradient" x1="526.13" y1="737.98" x2="322.84" y2="678.53" gradientUnits="userSpaceOnUse">
      <stop offset=".18" stop-color="#71251b"/>
      <stop offset=".59" stop-color="#ca251b"/>
    </linearGradient>
    <linearGradient id="linear-gradient-2" x1="842.07" y1="275.61" x2="1198.26" y2="275.61" xlink:href="#linear-gradient"/>
    <linearGradient id="linear-gradient-3" x1="561.19" y1="261.37" x2="557.35" y2="464.66" xlink:href="#linear-gradient"/>
    <linearGradient id="linear-gradient-4" x1="223.52" y1="624.62" x2="140.57" y2="579.08" xlink:href="#linear-gradient"/>
    <linearGradient id="linear-gradient-5" x1="211.71" y1="402.37" x2="274.52" y2="350.59" xlink:href="#linear-gradient"/>
  </defs>
  <g id="Layer_1-2" data-name="Layer 1">
    <g>
      <path class="cls-7" d="M910.35,1001.23c-101.83,3.69-208.63,5.89-315.18,12.24-43.38,2.59-86.85,4.16-130.2,7.31-115.68,8.41-229.81,27.61-343.59,49.25-22.23,4.23-44.41,8.79-66.66,12.93-27.51,5.11-43.74-.97-51.21-18.81-9.01-21.53-.11-49.54,20.68-62.56,23.23-14.55,49.54-20.88,76.01-26,157.44-30.46,316.87-33.01,476.44-33.72,148.36-.65,296.62,3.38,444.73,11.41,74.22,4.02,148.65,5.88,222.54,15.16,2.67.34,5.49.19,8.01.99,7.2,2.27,16.12,5.18,16.37,13.13.25,7.81-9.78,7.28-15.31,8.62-19,4.63-38.59,3.12-57.98,3.56-93.26,2.11-186.52,4.26-284.65,6.5Z"/>
      <g>
        <g>
          <path class="cls-7" d="M1140.25,800.97c-17.33.2-37.43-18.98-57.41-27.06-40.94-16.56-85.6-16.71-123.55,12.9-21.61,15.41-37.25,38.15-50.08,72.42-9.54,27.39-15.67,32.38-43.14,26.97-10.72-2.11-21.41-4.42-32.17-6.33-5.92-1.05-8.74-4.67-6.97-9.91,22.04-65.08,53.37-123.25,120.28-152.7,45.76-20.14,93.99-22.59,141.94-11.23,26.9,6.37,47.73,21.4,65.97,42.32,8.87,10.76,16.67,17.39,12.95,26.06-6.47,14.41-18.2,24.44-27.82,26.56Z"/>
          <path class="cls-7" d="M422.61,910c-25.85,0-60.51-7.03-83.88-35.71-11.88-14.58-15.75-35.17-8.42-46.87,3.98-6.36,8.3-8.85,15.91-7.17,57.72,12.78,115.53,25.2,173.25,38,4.98,1.1,12.05,1.61,13.2,7.58,1.16,6.02-5.27,9.23-9.55,11.78-29.26,17.41-59.41,32.53-100.51,32.39Z"/>
          <g>
            <path class="cls-7" d="M1161.22,135.17c-28.18-30-63.87-47.03-101.24-61.41-50.94-19.59-104.43-30.22-157.05-43.84C832.96,11.81,762.97-5.91,689.42,1.89c-50.64,5.37-92.35,26.72-120.7,68.89-24.04,35.77-39.51,76.28-50.84,117.76-9.37,34.31-13.93,69.7-16.47,105.31-3.24,45.33-4.42,90.97,3.03,135.54,9.42,56.34,28.87,109.99,56.82,160.34,17.96,32.34,165.5,187.28,186.73,217.48,3.06,4.35,6.16,10.96,13.48,9.6,4.42-.82,7.23-3.88,8.32-8.78,11.5-51.81,11.54-44.74,29.17-94.75,2.36-6.7,13.61-20.92,9.84-26.91-8.87-14.13-134.82-205.76-143.19-220.2-29.84-51.45-57.46-109.62-46.59-166.53,12.02-62.9,56.51-223.45,264.3-181.7,55.8,11.21,100.97,47.43,128.52,99.73,28.53,54.16,29.18,111.02,7.23,167.1-32.37,82.71-95.68,127.64-169.26,171.24-13.13,7.78-20.66,14.44-23.41,29.31-8.96,48.35-25.92,106.2-48.62,150.25-4.22,8.19-8.88,15.99-17.23,20.93-38.13,22.55-79.33,33.75-123.3,28-44.37-5.81-86.71-19.97-127.73-38.1-12.55-5.55-17.69-14.11-19.11-27.08-2.95-26.98-2.78-53.86.72-80.72,1.23-9.46-.76-14.18-11.82-16.05-45.69-7.73-91.08-17.16-136.73-25.12-25.68-4.48-52.05-5.54-77.36-11.37-25.29-5.83-50.66-9.9-76.38-11.86-18.37-1.4-28.77,6.31-35.43,23.78-7.17,18.8-5.19,22.03,14.61,25.22,53.13,8.56,106.27,17.12,159.36,25.96,14.31,2.38,16.96,8.53,10.22,21.23-9.57,18.01-24.54,25.78-46.99,22.37-53.84-8.19-107.76-15.98-161.35-25.65-13.83-2.49-24.47,9.3-25.61,18.79-1.32,10.99,10.08,12.67,19.5,14.23,20.03,3.31,39.93,7.4,59.91,11.18,5.31.59,5.93,6.7,5.2,11.39-2.7,17.45,7.56,21.7,22.14,24.53,32.79,6.37,65.33,14.07,97.92,21.47,47.57,10.8,94.84,23.08,142.68,32.43,84,16.42,168.06,32.69,250.3,56.42,31.32,9.04,55.01-.97,76.52-20.17,23.82-21.27,37.29-50.77,55.24-76.65,29.86-43.04,62.79-82.08,107.4-111.22,63.9-41.73,121.95-90.07,164.1-155.37,45.53-70.54,81.38-144.97,91.61-229.13,5.73-47.13.09-92.57-34.92-129.83Z"/>
            <path class="cls-7" d="M226.24,420.73c10.81,3.97,19.46,5.77,33.01,7.14,22.29,2.78,44.6,5.55,66.9,8.35,18.3,2.3,25.42,10.68,24.6,28.95-.37,8.18-2.96,15.74-6.76,22.92-6.56,10.93-16.97,13.85-28.79,13.8-13.52-.06-26.46-4.49-39.7-5.71-35.05-3.24-45.49-5.45-62.9,25.32-4.75,8.39-.78,9.39,4.5,10.25,13.9,2.27,30,5.33,41.75,6.75,35.11,6.52,70.19,13.31,105.37,19.5,33.88,5.96,67.85,11.43,101.82,16.85,8.94,1.43,19.22,2.49,13.71-12.13-18.6-49.33-33.75-100.06-57.95-147.16-13.19-25.68-31.12-48.74-60.05-55.4-45.12-10.37-91.17-16.92-137.69-17.36-15.81-.15-21.62,9.67-25.05,25.6-2.24,10.43-5.25,40.38,27.23,52.32Z"/>
          </g>
        </g>
        <path class="cls-5" d="M340.14,655.58l122.75-35.89c.4-.05,22.25,1.93,26.01,6.9,2.15,2.84,2.44,5.97,2.5,7.64-1,13.97-2,27.93-3,41.9,0,0,.05,49,7.85,60.12,7.8,11.12,99.59,94.54,99.59,94.54l-224.32-47.25-145.9-33.27-23.81-5.15s-14.56-1.9-13.99-17.92l-.02-11.95,46.79-9.34,61.47-12.55s39.75,4.33,44.07-37.76Z"/>
        <path class="cls-4" d="M842.07,109.16s188.37,14.02,191.72,207.52l82.75,158.33s75.84-111.82,81.54-235.51c5.69-123.69-131.86-163.3-131.86-163.3l-224.15,32.96Z"/>
        <path class="cls-2" d="M620.96,380.17l-101.1-198.66s-42.85,140.91-9.43,277.72l110.54-79.05Z"/>
        <path class="cls-3" d="M208.37,629.69s-23.76-3.92-31.82-5.13c-10.6-1.22-19.14-3.68-19.14-3.68,0,0-13.41-1.94-6.04-17.9,0,0,5.91-34.43,41.36-28.49l45.33,60-29.69-4.8Z"/>
        <path class="cls-6" d="M331.84,353.91c-19.39-4.54-54.19-7.97-54.19-7.97,0,0-28.74-2.52-44.69-3.14,0,0-21.65-3.87-28.9,10.35-7.54,16.22-11.51,40.03,5.94,57.89,13.31,13.63,42.06,15.45,42.06,15.45l79.78-72.58Z"/>
        <path class="cls-1" d="M964.53,279.04c-6.14-25.53-18.3-47.81-36.32-66.68-.36,9.68-1.44,19.39-3.28,28.82-5.6,28.78-11.18,57.71-19.44,85.79-7.7,26.18-22.45,47.05-48.06,58.39-1.16.51,1.39,1.9-.49,2.46,11.37-49.58,38.3-184.89,41.97-199.67-10.26-6.16-23.6-12.15-35.17-15.53-3.91,27.34-35.35,171.44-42.87,214.97-8.34.39-16.22-.69-24.49-5.99,9.37-38.12,42.56-213.43,42.56-213.43,0,0-29.34-3.73-38.87-2.52-.42,2.12-1.27,6.38-1.27,6.38,0,0-23.96,124.92-36.99,185.47-18.52-18.88-24.7-40.8-20.62-69.22,5.44-37.99,13.87-75.64,27.46-111.78-5.9,2.32-11.73,4.98-17.45,8.08-24.05,13.03-42.95,31.49-56.73,55.01-14.7,25.08-21.63,51.84-16.98,81.16,4.01,25.28,11.83,49.38,21.2,73.03,15.07,38.02,34.03,74.14,54.53,109.48,6.08,10.48,12.5,20.77,18.96,31.47,2.08-1.23,3.44-1.97,4.73-2.81,33.64-21.89,66.22-45.25,96.87-71.19,24.93-21.1,48.72-43.38,68.36-69.67,9.24-12.37,17.48-25.41,21.72-40.42,6.71-23.75,6.43-47.64.67-71.57Z"/>
      </g>
    </g>
  </g>
</svg>