<?xml version="1.0" encoding="UTF-8"?>
<svg id="Layer_2" data-name="Layer 2" xmlns="http://www.w3.org/2000/svg" viewBox="0 0 408.85 365.52">
  <defs>
    <style>
      .cls-1 {
        fill: #17213a;
      }

      .cls-2 {
        fill: #ca251b;
      }
    </style>
  </defs>
  <g id="Layer_1-2" data-name="Layer 1">
    <g>
      <path class="cls-1" d="M408.85,361.54c-1.97,2.96-4.92,4.85-8.41,3.25l-96.65-43.16-99.01,43.9-6.46-2.25-92.54-41.65c-32.99,13.57-65.18,29.17-97.92,43.39-3.6,1.17-7.7-1.48-7.86-5.48-.14-3.61,3.94-25.25,5.22-29.15,1.2-3.65,3.5-5.73,7.64-4.42,7.8,2.46,1.79,15.05,1.57,20.83-.05,1.18-.56,2.31,1.16,1.96l83.87-38.3,5.57-79.86-76.24,40.33-8.16,39.75c-3.25,6.33-13.28,1.69-10.91-5.32l22.99-125.52c1.06-2.58,4.32-3.78,6.71-5.27,24.59-15.3,52.17-27.63,76.98-42.78,7.07-1.84,12.72,5.68,19.37,6.98-6.51-13.83-12.47-28.22-14.27-43.61-4.76-40.89,19.54-79.74,59.17-91.53,58.68-17.45,114.03,30.62,107.59,90.82-1.67,15.59-7.9,30.29-14.35,44.32,5.87-1.94,12.21-8.64,18.56-6.99,27.58,15.89,56.13,30.3,83.19,46.95,1.02,1.6,5.13,22.82,4.97,25.01-.18,2.46-2.68,5.52-5.12,5.97-9.36,1.71-7.6-18.03-10.21-23.01-.58-1.1-6.08-4.46-7.37-4.67-16.5,3.88-34.8,6.19-50.93,11.02-.89.27-1.42-.53-1.15,1.21l75.85,89.03c1.47.14.79-2.62.69-3.49-2.05-17.34-7.41-35.31-9.53-52.78.23-5.84,7.61-7.71,11.15-3.13l24.83,132.87v4.79ZM202.7,12.05c-72.3,8.9-85.22,73.32-50.79,130.16,13.3,21.96,33.28,43.04,52.94,59.37,19-15.66,37.8-35.62,51.03-56.49,36.8-58.04,24.92-124.31-50.28-133.3l-2.91.26ZM172.51,188.27c-2.69-3.91-6.58-7.23-9.56-10.79-3.77-4.52-9.42-13.79-13.18-17.16-2.92-2.61-19.57-11.08-23.84-12.9-.87-.37-.79-1.09-1.74.12l-2,33.17,50.33,7.56ZM284.96,157.01c.14-1.8.8-10.13-1.06-10.23-11.87,7.49-24.96,10.12-31.54,23.93l32.6-13.7ZM109.3,182.56c.85-11.34,2.7-22.87,2.13-34.2l-67.52,37.87-6.33,33.98,71.72-37.66ZM340.98,173.1c.79-1.01-20.45-11.61-22.13-12.6l-20.97,4.66,1.59,17.54,41.51-9.59ZM286.69,169.91c-1.72-.13-3.23.62-4.77,1.21-11.99,4.58-39.84,15.71-49.79,22.07-3.6,2.3-8.29,8.25-11.7,11.46-4.99,4.71-11.57,6.43-9.58,14.76l50.69-21.6,3.09.96,25.25,19.85-3.19-48.7ZM198.06,338.38v-29.14c-15.96-26.27-34.41-51.35-49.83-77.92-3.58-6.17-8.86-13.21,2.32-15.17l47.51,5.66-.4-10.38-11.34-9.42-65.71-8.95c.24,8.77-2.79,18.28-.86,26.81l78.31,118.51ZM108.64,197.06c-.83-.76-6.07,2.2-7.2,2.77-22.27,11.31-43.98,23.83-66.25,35.15l-3.99,21.15,75.72-40.05,1.72-19.03ZM302.65,208.24l-1.57.38,2.48,21.47,89.32,107.49c-2.57-10.47-2.87-21.89-6.82-31.9l-83.41-97.44ZM210.97,232.32l.03,74.36,28.16,29.38,2.01.41,55.52-25.2c.74-1.09.45-5.21.35-6.81-1.15-19.98-2.57-42.48-4.79-62.28-.2-1.8-.74-6.92-1.6-7.98l-29.95-22.78-49.75,20.9ZM198.06,233.79l-35.94-3.58,35.94,56.28v-52.7ZM187.68,344.76l-70.25-106.18-5.23,72.69,75.49,33.49ZM380.91,342.37l-75.84-91.01,4.37,59.09,71.47,31.92ZM210.84,324.01v25.55l17.56-7.2-17.56-18.35Z"/>
      <path class="cls-2" d="M202.7,12.05l2.91-.26c75.19,8.99,87.07,75.26,50.28,133.3-13.23,20.87-32.03,40.83-51.03,56.49-19.66-16.33-39.64-37.4-52.94-59.37-34.43-56.85-21.51-121.26,50.79-130.16ZM186.66,57.57c-7.9-6.37-16.37,11.4-17.77,17.29-7.62,31.97,26.27,57.5,54.67,41.09,26.25-15.16,23.55-55.26-4.74-66.19-5.38-2.08-20.98-6.44-19.94,3.9.67,6.65,10.73,4.98,15.97,7.26,20.47,8.91,19.65,39.08-1.38,46.53-21.01,7.45-40.34-13.66-31.52-33.91,1.87-4.28,10.69-11.16,4.71-15.97Z"/>
    </g>
  </g>
</svg>