<?xml version="1.0" encoding="UTF-8"?>
<svg id="Layer_2" data-name="Layer 2" xmlns="http://www.w3.org/2000/svg" viewBox="0 0 418.83 511.12">
  <defs>
    <style>
      .cls-1 {
        fill: #17213a;
      }

      .cls-2 {
        fill: #ca251b;
      }
    </style>
  </defs>
  <g id="Layer_1-2" data-name="Layer 1">
    <g>
      <path class="cls-1" d="M338.32,201.29c-1.43-9.18-14.37-8.46-14.93.92l-.09,274.37c-.77,6.97-5.25,13.21-11.33,16.62-.92.51-6.64,2.95-7.02,2.95h-89.33v-139.72h79.35c3.61,0,11.2-8.99,12.03-12.92,1.26-6.01,1.11-28.82-.51-34.54-1.9-6.72-7.18-10.59-13.76-12.19l-278.26-.27c-7.6.38-13.88,5.73-14.43,13.5l-.04,186.68c.69,7.86,4.05,11.45,11.02,14.43h295.42l7.27-2.21c13.25-5.1,22.76-17.06,24.66-31.23l-.05-276.39ZM215.62,311.51h74.36c.33,0,1.51,1.33,2.49,1v27.45l-1.5,1.5h-75.35v-29.95ZM86.87,313.01l1.5-1.5h39.42v58.89c-6.43-1.78-13.9-10.15-20.47-10.09-6.31.06-14.02,9.36-20.45,10.09v-57.39ZM200.65,496.15H15.01v-184.64h56.89v71.37c0,3.51,4.84,8.2,8.55,8.44,6.1.41,20.67-12.33,27.04-14.77,2.95-.26,20.07,13.8,25.05,14.64,3.46.58,10.22-3.14,10.22-6.32v-73.36h57.89v184.64Z"/>
      <path class="cls-2" d="M200.65,311.51v184.64H15.01v-184.64h56.89v71.37c0,3.51,4.84,8.2,8.55,8.44,6.1.41,20.67-12.33,27.04-14.77,2.95-.26,20.07,13.8,25.05,14.64,3.46.58,10.22-3.14,10.22-6.32v-73.36h57.89Z"/>
      <path class="cls-1" d="M387.3,20.57C342.22-17.51,274.52-.37,250.69,52.66c-1.22,2.73-3.98,13.59-5.76,14.2l-137.63.1c-20.17,1.95-34.11,17.49-35.38,37.47l-.02,163.67c.47,9.9,12.06,13.51,15.02,3.04l-.04-166.71c3.4-29.72,32.92-21.37,54.31-22.52,2.84,17.27,14.21,28.75,31.97,30.04,19.64,1.42,44.94.5,64.96,0,2.65-.07,5.11-1.27,7.79-1.12l12.63,27.02H117.31c-4.58,0-11.86,7.45-13,11.95-1.17,4.58-1.15,31.26-.04,36.03,1.31,5.67,6.4,9.47,11.52,11.44l176.18.47c13.37-2.04,17.06-13.78,15.48-25.95,89.76,25.48,151.97-90.28,79.85-151.22ZM243.57,95.94c-2.21.14-4.21.87-6.45,1.04-16.18,1.18-49.15,1.71-64.8-.16-8.04-.95-14.27-6.87-15.58-14.86h86.83v13.98ZM292.47,181.27l-1.5,1.5H118.81v-28.45l1.5-1.5h152.7c1.18,0,14.57,13.97,19.46,12.98v15.47ZM272.68,131.2c-33.4-44.98-4.98-110.11,50.52-115.81,52.02-5.35,91.67,43.11,77.32,93.28-16.31,57.03-92.59,69.99-127.84,22.53Z"/>
      <path class="cls-2" d="M323.2,15.39c-55.5,5.7-83.92,70.83-50.52,115.81,35.25,47.46,111.53,34.5,127.84-22.53,14.35-50.17-25.3-98.63-77.32-93.28ZM348.86,104.92c.46,0,2.15,1.12,2.55,1.69,1.88,2.92,2.13,9.92-1.75,11.09-2.78.84-30.88.73-34.67.13-8.8-1.39-5.95-15.66-2.4-21.23,5.18-8.13,25.31-17.23,25.86-26.13.46-7.53-8.75-9.59-12.54-4.47-2.52,3.38-.06,8.42-6.22,9.77-10.38,2.27-10.17-10.5-5.8-16.8,9.65-13.91,37.72-9.32,39,8.98.66,9.49-5.36,16.23-12.04,21.98-5.24,4.5-14.69,7.89-16.44,14.99h24.45Z"/>
      <path class="cls-1" d="M307,230.62c-1.33-6.26-6.47-10.63-12.26-12.7l-178.19.02c-5.12.8-11.46,6.43-12.48,11.46-1.1,5.38-.96,27.84-.25,33.73.87,7.3,7.95,12.62,14.73,14.21l171.41.23c8.52-.66,15.79-6,17.24-14.7.96-5.73.98-26.7-.2-32.25ZM292.47,261.61c-.98-.32-2.16,1-2.49,1H120.31l-1.5-1.5v-28.44h172.16l1.5,1.5v27.44Z"/>
    </g>
  </g>
</svg>